<svg xmlns="http://www.w3.org/2000/svg" width="191.604" height="300" viewBox="0 0 191.604 300">
  <g id="potion" transform="translate(-21.405 -5.229)">
    <path id="trace_226" style="fill: #fff;" data-name="Tracé 226" d="M203.7,132.3c-4.489-3.984-18.2-11.006-31.463-17.8-9.18-4.7-17.854-9.143-20.6-11.2-6.031-4.523-9.321-21.037-9.321-28.257,0-6.238.884-20.229,1.166-24.548,2.462-.8,6.62-3.592,6.62-13.234,0-8.342-9.743-12.57-28.96-12.57l-1.876,0-7.039-.01c-18.758,0-28.27,4.231-28.27,12.577,0,10.071,4.536,12.664,6.969,13.331.291,4.426,1.163,18.259,1.163,24.454,0,7.217-3.29,23.73-9.321,28.257-2.744,2.06-11.421,6.5-20.6,11.2-13.257,6.788-26.97,13.81-31.453,17.8-8.929,7.93-11.639,21.482-7.243,36.244,4.6,15.475,30.9,70.33,37.044,80.428,6.4,10.517,11.6,10.517,28.8,10.517H145.1c17.207,0,22.4,0,28.8-10.517,6.141-10.091,32.444-64.949,37.051-80.428C215.334,153.785,212.627,140.233,203.7,132.3Zm3.705,35.192c-4.543,15.291-30.578,69.566-36.662,79.556-5.32,8.744-8.429,8.744-25.643,8.744H89.312c-17.217,0-20.316,0-25.643-8.744-6.084-9.994-32.119-64.272-36.659-79.556-3.973-13.354-1.668-25.479,6.158-32.441C37.3,131.382,51.4,124.162,63.849,117.79c9.733-4.982,18.139-9.284,21.137-11.532,7.7-5.769,10.8-24.41,10.8-31.208,0-7.518-1.206-25.338-1.263-26.092a1.841,1.841,0,0,0-1.287-1.635l-.318-.1a2.193,2.193,0,0,0-.573-.084c-.191,0-4.687-.194-4.687-9.87,0-5.813,8.5-8.885,24.578-8.885l2.566.01,6.349-.007c16.293,0,25.268,3.156,25.268,8.882,0,9.679-4.5,9.867-4.654,9.87a1.87,1.87,0,0,0-1.481.737,1.924,1.924,0,0,0-.4,1.179c-.111,1.6-1.253,18.681-1.253,26,0,6.8,3.109,25.442,10.8,31.208,3,2.248,11.4,6.55,21.134,11.532,12.45,6.369,26.558,13.6,30.692,17.264C209.075,142.016,211.377,154.141,207.407,167.495Z" transform="translate(0 45.735)" fill="#33058d"/>
    <path id="trace_227" data-name="Tracé 227" d="M88.6,29.282c0-2.174-14.235-2.5-22.715-2.5s-22.722.325-22.722,2.5,14.232,2.5,22.722,2.5S88.6,31.46,88.6,29.282Z" transform="translate(51.13 50.659)" fill="#33058d"/>
    <path id="trace_228" data-name="Tracé 228" d="M180.837,71.931c-3.977,0-9.193,2.305-15.237,4.972-8.285,3.655-18.588,8.2-29.275,8.208h-.007a34.792,34.792,0,0,1-21.02-6.955C95.582,63.891,76.663,56.349,60.578,56.349c-10.972,0-20.075,3.528-26.327,10.2-6.181,6.6-9.083,15.689-8.386,26.26.007.141.007.191.044.583a4.436,4.436,0,0,0,.127.734c4.493,14.527,26.752,61.894,32.129,70.9,5.317,8.919,9.357,8.919,24.38,8.919h48.837c15.026,0,19.063,0,24.387-8.919,5.374-9.006,27.63-56.372,32.136-70.923,0,0,.553-2.047.814-3.092a17.419,17.419,0,0,0,.315-3.273l.044-.958C189.076,76.511,186.533,71.931,180.837,71.931ZM49.515,88.184a8.925,8.925,0,1,1,8.922,8.929A8.926,8.926,0,0,1,49.515,88.184ZM76.6,123.268a6.466,6.466,0,1,1,6.466,6.463A6.462,6.462,0,0,1,76.6,123.268Z" transform="translate(10.244 120.148)" fill="#00cfb4"/>
    <path id="trace_229" data-name="Tracé 229" d="M36.812,22.54h6.932v6.935a3.459,3.459,0,0,0,6.918,0V22.54h6.932a3.459,3.459,0,0,0,0-6.918H50.662V8.687a3.459,3.459,0,0,0-6.918,0v6.932H36.812a3.461,3.461,0,0,0,0,6.922Z" transform="translate(28.076)" fill="#e10098"/>
    <path id="trace_230" data-name="Tracé 230" d="M66.861,56.211a3.45,3.45,0,0,0,4.888,0l4.9-4.9,4.9,4.9a3.459,3.459,0,0,0,4.891-4.891l-4.9-4.9,4.9-4.9a3.46,3.46,0,0,0-4.895-4.891l-4.9,4.9-4.9-4.9a3.459,3.459,0,0,0-4.891,4.891l4.9,4.9-4.9,4.9A3.466,3.466,0,0,0,66.861,56.211Z" transform="translate(104.44 71.402)" fill="#00a3e1"/>
    <path id="trace_231" data-name="Tracé 231" d="M39.972,52.811A11.708,11.708,0,1,0,28.266,41.1,11.718,11.718,0,0,0,39.972,52.811Zm0-16.494a4.788,4.788,0,1,1-4.788,4.788A4.793,4.793,0,0,1,39.972,36.318Z" transform="translate(16.125 56.8)" fill="#e10098"/>
    <path id="trace_232" data-name="Tracé 232" d="M66.8,35.257A11.706,11.706,0,1,0,55.094,23.551,11.718,11.718,0,0,0,66.8,35.257Zm0-16.49a4.786,4.786,0,1,1-4.788,4.784A4.792,4.792,0,0,1,66.8,18.767Z" transform="translate(79.179 15.55)" fill="#00a3e1"/>
    <path id="trace_233" data-name="Tracé 233" d="M40.949,18.856a5.178,5.178,0,1,0,5.18,5.176A5.182,5.182,0,0,0,40.949,18.856Zm0,6.918a1.742,1.742,0,1,1,1.746-1.742A1.743,1.743,0,0,1,40.949,25.774Z" transform="translate(33.769 32.028)" fill="#00cfb4"/>
    <path id="trace_234" data-name="Tracé 234" d="M74.3,34.268a5.178,5.178,0,1,0-5.18-5.18A5.18,5.18,0,0,0,74.3,34.268Zm0-6.918a1.744,1.744,0,1,1-1.746,1.742A1.743,1.743,0,0,1,74.3,27.349Z" transform="translate(112.156 43.911)" fill="#e10098"/>
  </g>
</svg>